# Blender 4.5.0
# www.blender.org
mtllib TruncatedTetrahedron.mtl
o TruncatedTetrahedron
v 0.500000 0.500000 -1.500000
v -0.500000 -0.500000 -1.500000
v 1.500000 -0.500000 0.500000
v 1.500000 0.500000 -0.500000
v -0.500000 1.500000 0.500000
v -1.500000 -0.500000 -0.500000
v 0.500000 -0.500000 1.500000
v 0.500000 1.500000 -0.500000
v -0.500000 -1.500000 -0.500000
v -0.500000 0.500000 1.500000
v 0.500000 -1.500000 0.500000
v -1.500000 0.500000 0.500000
vn -0.5774 0.5774 0.5774
vn -0.5774 -0.5774 0.5774
vn 0.5774 0.5774 0.5774
vn -0.5774 0.5774 -0.5774
vn 0.5774 -0.5774 0.5774
vn 0.5774 0.5774 -0.5774
vn -0.5774 -0.5774 -0.5774
vn 0.5774 -0.5774 -0.5774
vt 1.000000 0.461880
vt 1.000000 0.692820
vt 0.800000 0.577350
vt -0.000000 0.346410
vt -0.000000 0.115470
vt 0.200000 0.000000
vt 0.400000 0.115470
vt 0.400000 0.346410
vt 0.200000 0.461880
vt 0.600000 -0.000000
vt 0.800000 0.115470
vt 0.800000 0.346410
vt 0.600000 0.461880
vt 0.400000 0.346410
vt 0.400000 0.115470
vt 0.200000 0.923761
vt -0.000000 0.808290
vt -0.000000 0.577350
vt 0.200000 0.461880
vt 0.400000 0.577350
vt 0.400000 0.808290
vt 1.000000 0.115470
vt 0.800000 0.230940
vt 0.800000 0.000000
vt 1.000000 0.923760
vt 0.800000 0.808290
vt 1.000000 0.692820
vt 1.000000 0.346410
vt 0.800000 0.461880
vt 0.800000 0.577350
vt 0.800000 0.808290
vt 0.600000 0.923761
vt 0.400000 0.808290
vt 0.600000 0.461880
s 0
usemtl TruncatedTetrahedron
f 5/1/1 12/2/1 10/3/1
f 11/4/2 7/5/2 10/6/2 12/7/2 6/8/2 9/9/2
f 5/10/3 10/11/3 7/12/3 3/13/3 4/14/3 8/15/3
f 6/16/4 12/17/4 5/18/4 8/19/4 1/20/4 2/21/4
f 11/22/5 3/23/5 7/24/5
f 4/25/6 1/26/6 8/27/6
f 2/23/7 9/28/7 6/29/7
f 4/30/8 3/31/8 11/32/8 9/33/8 2/20/8 1/34/8
