# Blender 4.5.0
# www.blender.org
mtllib RhombicDodecahedron.mtl
g RhombicDodecahedron_RhombicDodecahedron_Points
v 1.000000 1.000000 -1.000000
v 1.000000 -1.000000 -1.000000
v 1.000000 1.000000 1.000000
v 1.000000 -1.000000 1.000000
v -1.000000 1.000000 -1.000000
v -1.000000 -1.000000 -1.000000
v -1.000000 1.000000 1.000000
v -1.000000 -1.000000 1.000000
v 2.000000 0.000000 0.000000
v -2.000000 0.000000 0.000000
v 0.000000 0.000000 -2.000000
v 0.000000 0.000000 2.000000
v 0.000000 2.000000 0.000000
v 0.000000 -2.000000 0.000000
vn 0.7071 0.7071 -0.0000
vn -0.7071 0.7071 -0.0000
vn -0.0000 0.7071 -0.7071
vn 0.7071 -0.0000 -0.7071
vn 0.7071 -0.7071 -0.0000
vn 0.7071 -0.0000 0.7071
vn -0.0000 -0.7071 0.7071
vn -0.7071 -0.0000 -0.7071
vn -0.7071 -0.7071 -0.0000
vn -0.0000 0.7071 0.7071
vn -0.0000 -0.7071 -0.7071
vn -0.7071 -0.0000 0.7071
vt 0.471405 0.333333
vt 0.471405 0.083333
vt 0.707107 0.000000
vt 0.707107 0.250000
vt 0.707107 0.333333
vt 0.707107 0.583333
vt 0.471405 0.666667
vt 0.471405 0.416667
vt 0.235702 0.916667
vt 0.000000 1.000000
vt 0.000000 0.750000
vt 0.235702 0.666667
vt 0.000000 0.250000
vt -0.000000 -0.000000
vt 0.235702 0.083333
vt 0.235702 0.333333
vt 0.235702 1.000000
vt 0.235702 0.750000
vt 0.471404 0.666667
vt 0.471404 0.916667
vt 0.235702 0.250000
vt 0.235702 -0.000000
vt 0.471405 0.083333
vt 0.471405 0.333333
vt 0.707107 0.916667
vt 0.471405 1.000000
vt 0.471405 0.750000
vt 0.707107 0.666667
vt 0.235702 0.416667
vt 0.235702 0.666667
vt 0.000000 0.583333
vt 0.000000 0.333333
vt 0.942809 -0.000000
vt 0.942809 0.250000
vt 0.707107 0.333333
vt 0.707107 0.083333
vt 0.707107 0.416667
vt 0.942809 0.333333
vt 0.942809 0.583333
vt 0.707107 0.666667
vt 0.707107 0.750000
vt 0.942809 0.666667
vt 0.942809 0.916667
vt 0.707107 1.000000
vt 0.471405 0.416667
vt 0.471405 0.666667
vt 0.235702 0.583333
vt 0.235702 0.333333
s 0
g RhombicDodecahedron_Material.001
usemtl Material.001
f 9/1/1 1/2/1 13/3/1 3/4/1
f 13/5/2 5/6/2 10/7/2 7/8/2
f 1/9/3 11/10/3 5/11/3 13/12/3
f 2/13/4 11/14/4 1/15/4 9/16/4
f 14/17/5 2/18/5 9/19/5 4/20/5
f 4/21/6 9/22/6 3/23/6 12/24/6
f 8/25/7 14/26/7 4/27/7 12/28/7
f 5/29/8 11/30/8 6/31/8 10/32/8
f 10/33/9 6/34/9 14/35/9 8/36/9
f 3/37/10 13/38/10 7/39/10 12/40/10
f 6/41/11 11/42/11 2/43/11 14/44/11
f 7/45/12 10/46/12 8/47/12 12/48/12
