# Blender 4.5.0
# www.blender.org
mtllib GyroelongatedTriangularCupola.mtl
o GyroelongatedTriangularCupola
v 1.000000 0.000000 0.000000
v 0.500000 0.866025 0.000000
v -0.500000 0.866025 0.000000
v -1.000000 0.000000 0.000000
v -0.500000 -0.866025 0.000000
v 0.500000 -0.866025 0.000000
v 0.500000 0.288675 0.816497
v -0.500000 0.288675 0.816497
v 0.000000 -0.577350 0.816497
v 0.866025 0.500000 -0.855600
v 0.000000 1.000000 -0.855600
v -0.866025 0.500000 -0.855600
v -0.866025 -0.500000 -0.855600
v -0.000000 -1.000000 -0.855600
v 0.866025 -0.500000 -0.855600
vn -0.0000 -0.0000 1.0000
vn 0.8165 0.4714 0.3333
vn -0.8165 0.4714 0.3333
vn -0.0000 -0.9428 0.3333
vn -0.0000 0.8165 0.5774
vn -0.7071 -0.4082 0.5774
vn 0.7071 -0.4082 0.5774
vn 0.9880 -0.0000 -0.1547
vn 0.8556 0.4940 0.1547
vn 0.4940 0.8556 -0.1547
vn -0.0000 0.9880 0.1547
vn -0.4940 0.8556 -0.1547
vn -0.8556 0.4940 0.1547
vn -0.9880 -0.0000 -0.1547
vn -0.8556 -0.4940 0.1547
vn -0.4940 -0.8556 -0.1547
vn -0.0000 -0.9880 0.1547
vn 0.4940 -0.8556 -0.1547
vn 0.8556 -0.4940 0.1547
vn -0.0000 -0.0000 -1.0000
vt 0.692820 1.000000
vt 0.519615 0.900000
vt 0.692820 0.800000
vt 0.346410 0.800000
vt 0.173205 0.700000
vt 0.346410 0.600000
vt 0.519615 0.800000
vt 0.346410 0.700000
vt 0.519615 0.600000
vt 0.692820 1.000000
vt 0.692820 0.800000
vt 0.866025 0.900000
vt 0.200000 0.400000
vt 0.200000 0.600000
vt -0.000000 0.600000
vt 0.000000 0.400000
vt 0.400000 0.400000
vt 0.400000 0.600000
vt 0.200000 0.600000
vt 0.200000 0.400000
vt 0.546410 0.000000
vt 0.546410 0.200000
vt 0.346410 0.200000
vt 0.346410 0.000000
vt 0.692820 0.600000
vt 0.692820 0.800000
vt 0.519615 0.700000
vt 0.719615 0.000000
vt 0.892820 0.100000
vt 0.719615 0.200000
vt 0.719615 0.100000
vt 0.546410 0.200000
vt 0.546410 -0.000000
vt 0.892820 0.300000
vt 0.719615 0.400000
vt 0.719615 0.300000
vt 0.546410 0.400000
vt 0.719615 0.400000
vt 0.892820 0.500000
vt 0.719615 0.600000
vt 0.892820 0.600000
vt 0.892820 0.800000
vt 0.719615 0.700000
vt 0.000000 0.800000
vt 0.173205 0.900000
vt -0.000000 1.000000
vt 0.719615 0.500000
vt 0.546410 0.600000
vt 0.546410 0.400000
vt 0.173205 0.800000
vt 0.346410 0.900000
vt 0.173205 1.000000
vt 0.173205 0.700000
vt 0.000000 0.800000
vt 0.000000 0.600000
vt 0.346410 0.800000
vt 0.519615 0.900000
vt 0.346410 1.000000
vt 0.000000 0.100000
vt 0.173205 0.000000
vt 0.346410 0.100000
vt 0.346410 0.300000
vt 0.173205 0.400000
vt 0.000000 0.300000
s 0
usemtl GyroelongatedTriangularCupola
f 7/1/1 8/2/1 9/3/1
f 1/4/2 2/5/2 7/6/2
f 3/7/3 4/8/3 8/9/3
f 5/10/4 6/11/4 9/12/4
f 2/13/5 3/14/5 8/15/5 7/16/5
f 4/17/6 5/18/6 9/19/6 8/20/6
f 6/21/7 1/22/7 7/23/7 9/24/7
f 1/25/8 15/26/8 10/27/8
f 1/28/9 10/29/9 2/30/9
f 2/31/10 10/32/10 11/33/10
f 2/30/11 11/34/11 3/35/11
f 3/36/12 11/37/12 12/32/12
f 3/38/13 12/39/13 4/40/13
f 4/41/14 12/42/14 13/43/14
f 4/44/15 13/45/15 5/46/15
f 5/47/16 13/48/16 14/49/16
f 5/50/17 14/51/17 6/52/17
f 6/53/18 14/54/18 15/55/18
f 6/56/19 15/57/19 1/58/19
f 10/59/20 15/60/20 14/61/20 13/62/20 12/63/20 11/64/20
