# Blender 4.5.0
# www.blender.org
mtllib TriangularOrthobicupola.mtl
o TriangularOrthobicupola
v -1.000000 -0.000000 0.000000
v -0.500000 -0.866025 0.000000
v 0.500000 -0.866025 0.000000
v 1.000000 -0.000000 0.000000
v 0.500000 0.866025 0.000000
v -0.500000 0.866025 0.000000
v -0.500000 -0.288675 0.816497
v 0.500000 -0.288675 0.816497
v 0.000000 0.577350 0.816497
v -0.500000 -0.288675 -0.816497
v 0.500000 -0.288675 -0.816497
v 0.000000 0.577350 -0.816497
vn -0.0000 -0.0000 1.0000
vn -0.0000 -0.0000 -1.0000
vn -0.8165 -0.4714 0.3333
vn 0.8165 -0.4714 0.3333
vn -0.0000 0.9428 0.3333
vn -0.8165 -0.4714 -0.3333
vn 0.8165 -0.4714 -0.3333
vn -0.0000 0.9428 -0.3333
vn -0.0000 -0.8165 0.5774
vn 0.7071 0.4082 0.5774
vn -0.7071 0.4082 0.5774
vn -0.0000 -0.8165 -0.5774
vn 0.7071 0.4082 -0.5774
vn -0.7071 0.4082 -0.5774
vt 0.933013 0.500000
vt 0.716506 0.375000
vt 0.933013 0.250000
vt 0.966506 0.000000
vt 0.966506 0.250000
vt 0.750000 0.125000
vt 0.716506 0.500000
vt 0.500000 0.375000
vt 0.716506 0.250000
vt 0.466506 0.750000
vt 0.250000 0.625000
vt 0.466506 0.500000
vt 0.000000 1.000000
vt -0.000000 0.750000
vt 0.216506 0.875000
vt 0.466506 0.750000
vt 0.466506 0.500000
vt 0.683013 0.625000
vt 0.683013 0.750000
vt 0.683013 0.500000
vt 0.899519 0.625000
vt 0.216506 1.000000
vt 0.216506 0.750000
vt 0.433013 0.875000
vt 0.250000 0.250000
vt 0.250000 0.500000
vt -0.000000 0.500000
vt 0.000000 0.250000
vt 0.500000 0.250000
vt 0.500000 0.500000
vt 0.250000 0.500000
vt 0.250000 0.250000
vt 0.250000 0.000000
vt 0.250000 0.250000
vt 0.000000 0.250000
vt 0.000000 0.000000
vt 0.500000 0.250000
vt 0.500000 0.000000
vt 0.750000 0.000000
vt 0.750000 0.250000
vt 0.250000 0.250000
vt 0.250000 0.000000
vt 0.500000 0.000000
vt 0.500000 0.250000
vt 0.000000 0.750000
vt 0.000000 0.500000
vt 0.250000 0.500000
vt 0.250000 0.750000
s 0
usemtl TriangularOrthobicupola
f 7/1/1 8/2/1 9/3/1
f 12/4/2 11/5/2 10/6/2
f 1/7/3 2/8/3 7/9/3
f 3/10/4 4/11/4 8/12/4
f 5/13/5 6/14/5 9/15/5
f 2/16/6 1/17/6 10/18/6
f 4/19/7 3/20/7 11/21/7
f 6/22/8 5/23/8 12/24/8
f 2/25/9 3/26/9 8/27/9 7/28/9
f 4/29/10 5/30/10 9/31/10 8/32/10
f 6/33/11 1/34/11 7/35/11 9/36/11
f 3/37/12 2/38/12 10/39/12 11/40/12
f 5/41/13 4/42/13 11/43/13 12/44/13
f 1/45/14 6/46/14 12/47/14 10/48/14
